<svg width="136" height="36" viewBox="0 0 136 36" fill="none" xmlns="http://www.w3.org/2000/svg">
<g clip-path="url(#clip0_86_423)">
<path d="M21.5996 16.8C21.5996 12.9 24.8996 11 24.9996 10.9C23.0996 8.20003 20.1996 7.90003 19.1996 7.80003C16.7996 7.50003 14.3996 9.20003 13.0996 9.20003C11.7996 9.20003 9.89959 7.80003 7.79959 7.80003C5.09959 7.80003 2.59959 9.30003 1.29959 11.7C-1.50041 16.5 0.599585 23.5 3.29959 27.3C4.69959 29.2 6.19959 31.3 8.29959 31.2C10.2996 31.1 11.0996 29.9 13.4996 29.9C15.8996 29.9 16.5996 31.2 18.6996 31.1C20.8996 31.1 22.1996 29.2 23.4996 27.3C25.0996 25.1 25.6996 23 25.6996 22.9C25.7996 23 21.5996 21.5 21.5996 16.8Z" fill="#222222"/>
<path d="M17.5996 5.29999C18.6996 3.99999 19.3996 2.19999 19.1996 0.299988C17.5996 0.399988 15.6996 1.39999 14.4996 2.69999C13.4996 3.79999 12.5996 5.69999 12.7996 7.49999C14.5996 7.59999 16.4996 6.59999 17.5996 5.29999Z" fill="#222222"/>
<path d="M50.8002 31H48.0002L46.5002 26.3H41.0002L39.5002 31H36.7002L42.0002 14.9H45.3002L50.8002 31ZM45.9002 24.3L44.5002 20.1C44.4002 19.7 44.1002 18.7 43.7002 17.1C43.5002 17.8 43.3002 18.8 42.9002 20.1L41.5002 24.3H45.9002Z" fill="#222222"/>
<path d="M64.5 25.1C64.5 27.1 64 28.6 62.9 29.8C61.9 30.8 60.7 31.3 59.2 31.3C57.6 31.3 56.5 30.7 55.8 29.6V35.7H53.1V23.2C53.1 22 53.1 20.7 53 19.4H55.3L55.4 21.2C56.3 19.8 57.6 19.1 59.4 19.1C60.8 19.1 62 19.6 62.9 20.7C64 21.9 64.5 23.3 64.5 25.1ZM61.8 25.2C61.8 24.1 61.5 23.1 61 22.4C60.4 21.6 59.7 21.3 58.7 21.3C58 21.3 57.5 21.5 56.9 21.9C56.4 22.3 56 22.9 55.9 23.6C55.8 23.9 55.8 24.2 55.8 24.4V26.3C55.8 27.1 56.1 27.9 56.6 28.4C57.1 29 57.8 29.3 58.7 29.3C59.7 29.3 60.5 28.9 61 28.2C61.5 27.4 61.8 26.4 61.8 25.2Z" fill="#222222"/>
<path d="M78.2002 25.1C78.2002 27.1 77.7002 28.6 76.6002 29.8C75.6002 30.8 74.4002 31.3 72.9002 31.3C71.3002 31.3 70.2002 30.7 69.5002 29.6V35.7H66.8002V23.2C66.8002 22 66.8002 20.7 66.7002 19.4H69.0002L69.1002 21.2C70.0002 19.8 71.3002 19.1 73.1002 19.1C74.5002 19.1 75.7002 19.6 76.6002 20.7C77.7002 21.9 78.2002 23.3 78.2002 25.1ZM75.5002 25.2C75.5002 24.1 75.2002 23.1 74.7002 22.4C74.1002 21.6 73.4002 21.3 72.4002 21.3C71.7002 21.3 71.2002 21.5 70.6002 21.9C70.1002 22.3 69.7002 22.9 69.6002 23.6C69.5002 23.9 69.5002 24.2 69.5002 24.4V26.3C69.5002 27.1 69.8002 27.9 70.3002 28.4C70.8002 29 71.5002 29.3 72.4002 29.3C73.4002 29.3 74.2002 28.9 74.7002 28.2C75.2002 27.4 75.5002 26.4 75.5002 25.2Z" fill="#222222"/>
<path d="M93.5998 26.5C93.5998 27.9 93.0998 29 92.0998 29.9C90.9998 30.8 89.4998 31.3 87.5998 31.3C85.7998 31.3 84.3998 31 83.2998 30.3L83.8998 28.1C85.0998 28.8 86.2998 29.1 87.6998 29.1C88.6998 29.1 89.4998 28.9 89.9998 28.4C90.5998 28 90.7998 27.4 90.7998 26.6C90.7998 25.9 90.5998 25.4 90.0998 24.9C89.5998 24.5 88.8998 24 87.7998 23.7C84.8998 22.6 83.4998 21.1 83.4998 19.1C83.4998 17.8 83.9998 16.7 84.9998 15.8C85.9998 15 87.3998 14.5 89.0998 14.5C90.5998 14.5 91.8998 14.8 92.8998 15.3L92.1998 17.4C91.2998 16.9 90.1998 16.7 88.9998 16.7C88.0998 16.7 87.2998 16.9 86.7998 17.4C86.3998 17.8 86.0998 18.3 86.0998 18.9C86.0998 19.5 86.3998 20.1 86.8998 20.5C87.2998 20.9 88.0998 21.3 89.2998 21.7C90.6998 22.3 91.7998 22.9 92.3998 23.7C93.1998 24.4 93.5998 25.4 93.5998 26.5Z" fill="#222222"/>
<path d="M102.3 21.3H99.4V27C99.4 28.4 99.9 29.2 100.9 29.2C101.4 29.2 101.8 29.2 102.1 29.1L102.2 31.1C101.7 31.3 101 31.4 100.1 31.4C99.1 31.4 98.2 31.1 97.6 30.5C97 29.9 96.7 28.8 96.7 27.4V21.5H95V19.6H96.7V17.5L99.3 16.7V19.6H102.2V21.3H102.3Z" fill="#222222"/>
<path d="M115.5 25.1C115.5 26.9 115 28.4 113.9 29.5C112.8 30.7 111.3 31.3 109.5 31.3C107.7 31.3 106.4 30.7 105.3 29.6C104.3 28.5 103.7 27 103.7 25.3C103.7 23.5 104.2 22 105.3 20.9C106.4 19.8 107.8 19.2 109.6 19.2C111.4 19.2 112.8 19.8 113.8 20.9C115 21.9 115.5 23.4 115.5 25.1ZM112.8 25.2C112.8 24.1 112.6 23.2 112.1 22.4C111.5 21.5 110.7 21 109.7 21C108.6 21 107.8 21.5 107.3 22.4C106.8 23.2 106.6 24.1 106.6 25.2C106.6 26.3 106.8 27.2 107.3 28C107.9 28.9 108.7 29.4 109.7 29.4C110.7 29.4 111.5 28.9 112.1 28C112.5 27.2 112.8 26.3 112.8 25.2Z" fill="#222222"/>
<path d="M124.1 21.7C123.8 21.7 123.6 21.6 123.3 21.6C122.4 21.6 121.6 21.9 121.1 22.6C120.7 23.2 120.4 24 120.4 24.9V31H117.7V23C117.7 21.7 117.7 20.4 117.6 19.3H119.9L120 21.5H120.1C120.4 20.7 120.8 20.1 121.4 19.7C122 19.3 122.6 19.1 123.3 19.1C123.5 19.1 123.8 19.1 124 19.1V21.7H124.1Z" fill="#222222"/>
<path d="M136 24.7C136 25.2 136 25.6 135.9 25.9H127.9C127.9 27 128.3 27.9 129.1 28.5C129.8 29 130.6 29.3 131.7 29.3C132.9 29.3 134 29.1 134.9 28.7L135.3 30.5C134.2 31 132.8 31.2 131.3 31.2C129.4 31.2 128 30.7 126.9 29.6C125.8 28.5 125.3 27.1 125.3 25.3C125.3 23.5 125.8 22.1 126.8 20.9C127.8 19.7 129.2 19 131 19C132.7 19 134 19.6 134.9 20.9C135.6 22 136 23.2 136 24.7ZM133.5 24C133.5 23.2 133.3 22.6 133 22C132.5 21.3 131.8 20.9 130.9 20.9C130 20.9 129.3 21.3 128.8 22C128.4 22.6 128.1 23.2 128 24H133.5Z" fill="#222222"/>
<path d="M44.9998 4.99998C44.9998 6.39998 44.5998 7.49998 43.6998 8.19998C42.8998 8.89998 41.6998 9.19998 40.1998 9.19998C39.4998 9.19998 38.7998 9.19998 38.2998 9.09998V1.29998C38.9998 1.19998 39.6998 1.09998 40.4998 1.09998C41.8998 1.09998 42.9998 1.39998 43.6998 1.99998C44.5998 2.69998 44.9998 3.69998 44.9998 4.99998ZM43.6998 4.99998C43.6998 4.09998 43.3998 3.39998 42.8998 2.89998C42.3998 2.39998 41.6998 2.19998 40.6998 2.19998C40.2998 2.19998 39.8998 2.19998 39.5998 2.29998V8.19998C39.7998 8.19998 40.0998 8.19998 40.4998 8.19998C41.4998 8.19998 42.2998 7.89998 42.7998 7.39998C43.3998 6.79998 43.6998 5.99998 43.6998 4.99998Z" fill="#222222"/>
<path d="M52.3 6.20002C52.3 7.10002 52 7.80002 51.5 8.40002C51 9.00002 50.2 9.30002 49.4 9.30002C48.5 9.30002 47.9 9.00002 47.3 8.50002C46.8 7.90002 46.5 7.20002 46.5 6.40002C46.5 5.50002 46.8 4.80002 47.3 4.20002C47.8 3.60002 48.5 3.40002 49.4 3.40002C50.3 3.40002 51 3.70002 51.5 4.20002C52.1 4.60002 52.3 5.30002 52.3 6.20002ZM51 6.20002C51 5.70002 50.9 5.20002 50.7 4.80002C50.4 4.30002 50 4.10002 49.5 4.10002C49 4.10002 48.6 4.30002 48.3 4.80002C48.1 5.20002 48 5.60002 48 6.20002C48 6.70002 48.1 7.20002 48.3 7.60002C48.6 8.10002 49 8.30002 49.5 8.30002C50 8.30002 50.4 8.10002 50.7 7.60002C50.9 7.20002 51 6.80002 51 6.20002Z" fill="#222222"/>
<path d="M62.0996 3.40002L60.2996 9.10002H59.0996L58.2996 6.60002C58.0996 6.00002 57.9996 5.40002 57.7996 4.80002C57.6996 5.40002 57.4996 6.00002 57.2996 6.60002L56.4996 9.10002H55.2996L53.5996 3.40002H54.8996L55.5996 6.10002C55.7996 6.70002 55.8996 7.40002 55.9996 7.90002C56.0996 7.40002 56.2996 6.80002 56.4996 6.10002L57.2996 3.40002H58.3996L59.1996 6.10002C59.3996 6.80002 59.4996 7.40002 59.6996 8.00002C59.7996 7.40002 59.8996 6.80002 60.0996 6.10002L60.7996 3.40002H62.0996Z" fill="#222222"/>
<path d="M68.8998 9.09999H67.5998V5.79999C67.5998 4.79999 67.1998 4.29999 66.3998 4.29999C65.9998 4.29999 65.6998 4.39999 65.4998 4.69999C65.2998 4.99999 65.0998 5.29999 65.0998 5.69999V9.09999H63.7998V4.99999C63.7998 4.49999 63.7998 3.99999 63.7998 3.39999H64.8998L64.9998 4.29999C65.1998 3.99999 65.3998 3.79999 65.6998 3.59999C66.0998 3.39999 66.3998 3.29999 66.8998 3.29999C67.3998 3.29999 67.8998 3.49999 68.2998 3.79999C68.7998 4.19999 68.9998 4.89999 68.9998 5.69999V9.09999H68.8998Z" fill="#222222"/>
<path d="M72.5002 9.09999H71.2002V0.799988H72.5002V9.09999Z" fill="#222222"/>
<path d="M80.0998 6.20002C80.0998 7.10002 79.7998 7.80002 79.2998 8.40002C78.7998 9.00002 77.9998 9.30002 77.1998 9.30002C76.2998 9.30002 75.6998 9.00002 75.0998 8.50002C74.5998 7.90002 74.2998 7.20002 74.2998 6.40002C74.2998 5.50002 74.5998 4.80002 75.0998 4.20002C75.5998 3.60002 76.2998 3.40002 77.1998 3.40002C78.0998 3.40002 78.7998 3.70002 79.2998 4.20002C79.8998 4.60002 80.0998 5.30002 80.0998 6.20002ZM78.7998 6.20002C78.7998 5.70002 78.6998 5.20002 78.4998 4.80002C78.1998 4.30002 77.7998 4.10002 77.2998 4.10002C76.7998 4.10002 76.3998 4.30002 76.0998 4.80002C75.8998 5.20002 75.7998 5.60002 75.7998 6.20002C75.7998 6.70002 75.8998 7.20002 76.0998 7.60002C76.3998 8.10002 76.7998 8.30002 77.2998 8.30002C77.7998 8.30002 78.1998 8.10002 78.4998 7.60002C78.6998 7.20002 78.7998 6.80002 78.7998 6.20002Z" fill="#222222"/>
<path d="M86.3996 9.09999H85.1996L85.0996 8.39999C84.6996 8.89999 84.0996 9.19999 83.3996 9.19999C82.7996 9.19999 82.3996 8.99999 82.0996 8.69999C81.7996 8.39999 81.5996 7.99999 81.5996 7.49999C81.5996 6.79999 81.8996 6.29999 82.4996 5.89999C83.0996 5.49999 83.8996 5.39999 84.9996 5.39999V5.29999C84.9996 4.49999 84.5996 4.19999 83.7996 4.19999C83.1996 4.19999 82.6996 4.29999 82.2996 4.59999L81.9996 3.79999C82.4996 3.49999 83.1996 3.29999 83.9996 3.29999C85.4996 3.29999 86.2996 4.09999 86.2996 5.69999V7.79999C86.3996 8.29999 86.3996 8.79999 86.3996 9.09999ZM85.0996 7.09999V6.29999C83.6996 6.29999 82.8996 6.69999 82.8996 7.49999C82.8996 7.79999 82.9996 7.99999 83.1996 8.19999C83.3996 8.39999 83.5996 8.39999 83.7996 8.39999C84.0996 8.39999 84.3996 8.29999 84.5996 8.09999C84.7996 7.89999 84.9996 7.69999 85.0996 7.39999C85.0996 7.29999 85.0996 7.19999 85.0996 7.09999Z" fill="#222222"/>
<path d="M93.8998 9.09999H92.6998L92.5998 8.19999C92.1998 8.89999 91.5998 9.19999 90.6998 9.19999C89.9998 9.19999 89.3998 8.99999 88.9998 8.39999C88.4998 7.89999 88.2998 7.19999 88.2998 6.29999C88.2998 5.39999 88.5998 4.59999 89.0998 4.09999C89.5998 3.59999 90.1998 3.29999 90.8998 3.29999C91.6998 3.29999 92.1998 3.59999 92.5998 4.09999V0.799988H93.8998V7.59999C93.7998 8.09999 93.7998 8.59999 93.8998 9.09999ZM92.4998 6.69999V5.69999C92.4998 5.49999 92.4998 5.39999 92.4998 5.29999C92.3998 4.99999 92.1998 4.79999 91.9998 4.59999C91.7998 4.39999 91.4998 4.29999 91.0998 4.29999C90.5998 4.29999 90.1998 4.49999 89.9998 4.89999C89.6998 5.29999 89.5998 5.79999 89.5998 6.29999C89.5998 6.89999 89.6998 7.29999 89.9998 7.69999C90.2998 8.09999 90.6998 8.29999 91.0998 8.29999C91.4998 8.29999 91.8998 8.09999 92.0998 7.79999C92.3998 7.39999 92.4998 7.09999 92.4998 6.69999Z" fill="#222222"/>
<path d="M105 6.20002C105 7.10002 104.7 7.80002 104.2 8.40002C103.7 9.00002 102.9 9.30002 102.1 9.30002C101.2 9.30002 100.6 9.00002 100 8.50002C99.5002 7.90002 99.2002 7.20002 99.2002 6.40002C99.2002 5.50002 99.5002 4.80002 100 4.20002C100.5 3.60002 101.2 3.40002 102.1 3.40002C103 3.40002 103.7 3.70002 104.2 4.20002C104.8 4.60002 105 5.30002 105 6.20002ZM103.7 6.20002C103.7 5.70002 103.6 5.20002 103.4 4.80002C103.1 4.30002 102.7 4.10002 102.2 4.10002C101.7 4.10002 101.3 4.30002 101 4.80002C100.8 5.20002 100.7 5.60002 100.7 6.20002C100.7 6.70002 100.8 7.20002 101 7.60002C101.3 8.10002 101.7 8.30002 102.2 8.30002C102.7 8.30002 103.1 8.10002 103.4 7.60002C103.5 7.20002 103.7 6.80002 103.7 6.20002Z" fill="#222222"/>
<path d="M112 9.09999H110.7V5.79999C110.7 4.79999 110.3 4.29999 109.5 4.29999C109.1 4.29999 108.8 4.39999 108.6 4.69999C108.4 4.99999 108.2 5.29999 108.2 5.69999V9.09999H106.9V4.99999C106.9 4.49999 106.9 3.99999 106.9 3.39999H108L108.1 4.29999C108.3 3.99999 108.5 3.79999 108.8 3.59999C109.2 3.39999 109.5 3.29999 110 3.29999C110.5 3.29999 111 3.49999 111.4 3.79999C111.9 4.19999 112.1 4.89999 112.1 5.69999V9.09999H112Z" fill="#222222"/>
<path d="M120.8 4.30002H119.4V7.10002C119.4 7.80002 119.7 8.20002 120.2 8.20002C120.4 8.20002 120.6 8.20002 120.8 8.10002V9.10002C120.5 9.20002 120.2 9.20002 119.8 9.20002C119.3 9.20002 118.9 9.00002 118.6 8.70002C118.3 8.40002 118.2 7.90002 118.2 7.20002V4.30002H117.3V3.30002H118.2V2.30002L119.5 1.90002V3.30002H120.9L120.8 4.30002Z" fill="#222222"/>
<path d="M127.7 9.09999H126.4V5.89999C126.4 4.89999 126 4.39999 125.2 4.39999C124.6 4.39999 124.2 4.69999 124 5.29999C124 5.39999 123.9 5.59999 123.9 5.79999V9.19999H122.6V0.799988H123.9V4.19999C124.3 3.59999 124.9 3.29999 125.7 3.29999C126.2 3.29999 126.7 3.49999 127 3.79999C127.4 4.19999 127.7 4.89999 127.7 5.69999V9.09999Z" fill="#222222"/>
<path d="M134.8 5.99999C134.8 6.19999 134.8 6.39999 134.8 6.59999H130.9C130.9 7.19999 131.1 7.59999 131.5 7.89999C131.8 8.19999 132.3 8.29999 132.8 8.29999C133.4 8.29999 133.9 8.19999 134.4 7.99999L134.6 8.89999C134 9.09999 133.4 9.29999 132.6 9.29999C131.7 9.29999 131 8.99999 130.5 8.49999C130 7.99999 129.7 7.29999 129.7 6.39999C129.7 5.49999 129.9 4.79999 130.4 4.19999C130.9 3.59999 131.6 3.29999 132.5 3.29999C133.3 3.29999 134 3.59999 134.4 4.19999C134.6 4.69999 134.8 5.29999 134.8 5.99999ZM133.6 5.59999C133.6 5.19999 133.5 4.89999 133.3 4.59999C133.1 4.19999 132.7 4.09999 132.3 4.09999C131.9 4.09999 131.5 4.29999 131.3 4.59999C131.1 4.89999 131 5.19999 130.9 5.59999H133.6Z" fill="#222222"/>
</g>
<defs>
<clipPath id="clip0_86_423">
<rect width="136" height="36" fill="white"/>
</clipPath>
</defs>
</svg>
