<svg width="136" height="36" viewBox="0 0 136 36" fill="none" xmlns="http://www.w3.org/2000/svg">
<g clip-path="url(#clip0_86_382)">
<path d="M44.4998 5.99999C44.4998 6.99999 44.1998 7.69999 43.5998 8.29999C42.8998 8.99999 42.0998 9.29999 40.9998 9.29999C39.9998 9.29999 39.0998 8.99999 38.3998 8.29999C37.6998 7.59999 37.2998 6.79999 37.2998 5.79999C37.2998 4.79999 37.6998 3.89999 38.3998 3.29999C39.0998 2.59999 39.9998 2.29999 40.9998 2.29999C41.4998 2.29999 41.9998 2.39999 42.3998 2.59999C42.8998 2.79999 43.1998 2.99999 43.4998 3.39999L42.9998 3.79999C42.4998 3.19999 41.8998 2.99999 41.0998 2.99999C40.3998 2.99999 39.6998 3.29999 39.1998 3.79999C38.6998 4.29999 38.3998 4.99999 38.3998 5.79999C38.3998 6.59999 38.6998 7.29999 39.1998 7.79999C39.6998 8.29999 40.3998 8.59999 41.0998 8.59999C41.8998 8.59999 42.4998 8.29999 43.0998 7.79999C43.3998 7.49999 43.5998 6.99999 43.6998 6.39999H41.1998V5.39999H44.5998C44.4998 5.59999 44.4998 5.79999 44.4998 5.99999Z" fill="#222222"/>
<path d="M49.8998 3.09999H46.6998V5.29999H49.5998V6.09999H46.6998V8.29999H49.8998V9.09999H45.7998V2.29999H49.8998V3.09999Z" fill="#222222"/>
<path d="M53.6998 9.09999H52.7998V3.09999H50.7998V2.29999H55.5998V3.09999H53.5998V9.09999H53.6998Z" fill="#222222"/>
<path d="M59.0996 9.09999V2.29999H59.9996V9.09999H59.0996Z" fill="#222222"/>
<path d="M63.9996 9.09999H63.0996V3.09999H61.0996V2.29999H65.9996V3.09999H63.9996V9.09999Z" fill="#222222"/>
<path d="M75.1004 8.20001C74.4004 8.90001 73.6004 9.20001 72.5004 9.20001C71.5004 9.20001 70.6004 8.90001 69.9004 8.20001C69.2004 7.50001 68.9004 6.70001 68.9004 5.70001C68.9004 4.70001 69.2004 3.90001 69.9004 3.20001C70.6004 2.50001 71.4004 2.20001 72.5004 2.20001C73.5004 2.20001 74.4004 2.50001 75.1004 3.20001C75.8004 3.90001 76.1004 4.70001 76.1004 5.70001C76.1004 6.70001 75.8004 7.50001 75.1004 8.20001ZM70.6004 7.60001C71.1004 8.10001 71.8004 8.40001 72.5004 8.40001C73.2004 8.40001 73.9004 8.10001 74.4004 7.60001C74.9004 7.10001 75.2004 6.40001 75.2004 5.60001C75.2004 4.80001 74.9004 4.10001 74.4004 3.60001C73.9004 3.10001 73.2004 2.80001 72.5004 2.80001C71.7004 2.80001 71.1004 3.10001 70.6004 3.60001C70.1004 4.10001 69.8004 4.80001 69.8004 5.60001C69.8004 6.50001 70.1004 7.10001 70.6004 7.60001Z" fill="#222222"/>
<path d="M77.4004 9.09999V2.29999H78.5004L81.9004 7.59999V6.29999V2.29999H82.8004V9.09999H81.9004L78.3004 3.49999V4.79999V9.09999H77.4004Z" fill="#222222"/>
<path d="M68.6996 19.1C65.9996 19.1 63.6996 21.1 63.6996 23.9C63.6996 26.7 65.8996 28.7 68.6996 28.7C71.3996 28.7 73.6996 26.6 73.6996 23.9C73.6996 21.1 71.3996 19.1 68.6996 19.1ZM68.6996 26.9C67.1996 26.9 65.8996 25.7 65.8996 24C65.8996 22.3 67.1996 21.1 68.6996 21.1C70.1996 21.1 71.4996 22.3 71.4996 24C71.4996 25.6 70.1996 26.9 68.6996 26.9ZM57.7996 19.1C55.0996 19.1 52.7996 21.1 52.7996 23.9C52.7996 26.7 54.9996 28.7 57.7996 28.7C60.4996 28.7 62.7996 26.6 62.7996 23.9C62.7996 21.1 60.5996 19.1 57.7996 19.1ZM57.7996 26.9C56.2996 26.9 54.9996 25.7 54.9996 24C54.9996 22.3 56.2996 21.1 57.7996 21.1C59.2996 21.1 60.5996 22.3 60.5996 24C60.5996 25.6 59.2996 26.9 57.7996 26.9ZM44.8996 20.6V22.7H49.8996C49.7996 23.9 49.3996 24.7 48.7996 25.3C48.0996 26 46.8996 26.8 44.8996 26.8C41.7996 26.8 39.3996 24.4 39.3996 21.3C39.3996 18.2 41.7996 15.8 44.8996 15.8C46.5996 15.8 47.7996 16.4 48.6996 17.3L50.1996 15.8C48.8996 14.6 47.2996 13.7 44.8996 13.7C40.5996 13.7 37.0996 17.1 37.0996 21.2C37.0996 25.3 40.6996 28.7 44.8996 28.7C47.1996 28.7 48.8996 28 50.2996 26.6C51.6996 25.2 52.0996 23.3 52.0996 21.8C52.0996 21.3 52.0996 20.9 51.9996 20.5H44.8996V20.6ZM97.7996 22.2C97.3996 21.1 96.0996 19.1 93.4996 19.1C90.8996 19.1 88.7996 21.1 88.7996 23.9C88.7996 26.6 90.8996 28.7 93.6996 28.7C95.9996 28.7 97.2996 27.3 97.7996 26.6L96.0996 25.5C95.4996 26.3 94.7996 26.8 93.6996 26.8C92.5996 26.8 91.7996 26.3 91.2996 25.3L97.8996 22.6L97.7996 22.2ZM90.9996 23.8C90.8996 21.9 92.4996 21 93.5996 21C94.4996 21 95.1996 21.4 95.3996 22L90.9996 23.8ZM85.5996 28.5H87.7996V14.2H85.5996V28.5ZM81.9996 20.2C81.3996 19.6 80.4996 19.1 79.2996 19.1C76.7996 19.1 74.4996 21.2 74.4996 24C74.4996 26.7 76.7996 28.8 79.2996 28.8C80.4996 28.8 81.3996 28.3 81.8996 27.7H81.9996V28.4C81.9996 30.3 80.9996 31.2 79.3996 31.2C78.0996 31.2 77.1996 30.3 76.8996 29.5L74.9996 30.2C75.4996 31.5 76.9996 33.1 79.3996 33.1C81.9996 33.1 84.0996 31.6 84.0996 28.1V19.4H81.9996V20.2ZM79.4996 26.9C77.9996 26.9 76.6996 25.7 76.6996 24C76.6996 22.3 77.9996 21 79.4996 21C80.9996 21 82.1996 22.2 82.1996 24C82.1996 25.6 80.9996 26.9 79.4996 26.9ZM108 14.2H102.8V28.4H105V23H108C110.4 23 112.8 21.3 112.8 18.6C112.8 15.9 110.4 14.2 108 14.2ZM108 21.1H104.9V16.2H108C109.6 16.2 110.6 17.5 110.6 18.6C110.6 19.8 109.7 21.1 108 21.1ZM121.5 19C119.9 19 118.3 19.7 117.6 21.2L119.5 22C119.9 21.2 120.7 21 121.5 21C122.6 21 123.8 21.7 123.8 22.8V23C123.4 22.8 122.6 22.4 121.5 22.4C119.4 22.4 117.3 23.5 117.3 25.6C117.3 27.5 119 28.7 120.9 28.7C122.4 28.7 123.2 28.1 123.7 27.3H123.8V28.4H125.9V23C125.9 20.5 124 19 121.5 19ZM121.2 26.9C120.5 26.9 119.5 26.6 119.5 25.7C119.5 24.6 120.7 24.2 121.8 24.2C122.8 24.2 123.2 24.4 123.8 24.7C123.6 25.9 122.5 26.9 121.2 26.9ZM133.6 19.4L131.1 25.6H131L128.4 19.4H126.1L130 28L127.8 32.8H130.1L136.1 19.4H133.6ZM114 28.5H116.2V14.2H114V28.5Z" fill="#222222"/>
<path d="M0.5 2.90002C0.2 3.20002 0 3.80002 0 4.50002V29.7C0 30.4 0.2 31 0.5 31.3L0.6 31.4L15.1 17.3V17L0.5 2.90002Z" fill="url(#paint0_linear_86_382)"/>
<path d="M19.8996 21.9L15.0996 17.2V16.9L19.8996 12.2L19.9996 12.3L25.6996 15.5C27.2996 16.4 27.2996 17.9 25.6996 18.8L19.9996 21.9H19.8996Z" fill="url(#paint1_linear_86_382)"/>
<path d="M20 21.9L15.1 17.1L0.5 31.3C1.1 31.8 2 31.9 3 31.3L20 21.9Z" fill="url(#paint2_linear_86_382)"/>
<path d="M20 12.3L3 2.8C2 2.3 1.1 2.3 0.5 2.9L15 17.1L20 12.3Z" fill="url(#paint3_linear_86_382)"/>
</g>
<defs>
<linearGradient id="paint0_linear_86_382" x1="13.6593" y1="30.0807" x2="-5.4568" y2="10.5014" gradientUnits="userSpaceOnUse">
<stop stop-color="#00A0FF"/>
<stop offset="0.0066" stop-color="#00A1FF"/>
<stop offset="0.2601" stop-color="#00BEFF"/>
<stop offset="0.5122" stop-color="#00D2FF"/>
<stop offset="0.7604" stop-color="#00DFFF"/>
<stop offset="1" stop-color="#00E3FF"/>
</linearGradient>
<linearGradient id="paint1_linear_86_382" x1="27.8469" y1="17.0755" x2="-0.390691" y2="17.0755" gradientUnits="userSpaceOnUse">
<stop stop-color="#FFE000"/>
<stop offset="0.4087" stop-color="#FFBD00"/>
<stop offset="0.7754" stop-color="#FFA500"/>
<stop offset="1" stop-color="#FF9C00"/>
</linearGradient>
<linearGradient id="paint2_linear_86_382" x1="7.6618" y1="23.9047" x2="-18.2612" y2="-2.64642" gradientUnits="userSpaceOnUse">
<stop stop-color="#FF3A44"/>
<stop offset="1" stop-color="#C31162"/>
</linearGradient>
<linearGradient id="paint3_linear_86_382" x1="-12.3031" y1="30.6988" x2="-0.727299" y2="18.8426" gradientUnits="userSpaceOnUse">
<stop stop-color="#32A071"/>
<stop offset="0.0685" stop-color="#2DA771"/>
<stop offset="0.4762" stop-color="#15CF74"/>
<stop offset="0.8009" stop-color="#06E775"/>
<stop offset="1" stop-color="#00F076"/>
</linearGradient>
<clipPath id="clip0_86_382">
<rect width="136" height="36" fill="white"/>
</clipPath>
</defs>
</svg>
