<svg width="524" height="568" viewBox="0 0 524 568" fill="none" xmlns="http://www.w3.org/2000/svg">
<path d="M459.033 352.894H212.468C206.079 352.894 200.895 346.916 200.895 339.54V196.434C200.895 189.058 206.079 183.08 212.468 183.08H459.033C465.421 183.08 470.606 189.058 470.606 196.434V339.54C470.606 346.916 465.421 352.894 459.033 352.894Z" fill="#EEEEEE"/>
<path d="M226.468 212.156H280.507" stroke="#EEEEEE" stroke-width="5.09" stroke-miterlimit="10" stroke-linecap="round"/>
<path d="M226.002 302.08H264.313" stroke="#EEEEEE" stroke-width="4.64" stroke-miterlimit="10" stroke-linecap="round"/>
<path fill-rule="evenodd" clip-rule="evenodd" d="M280.764 302.08C280.764 299.005 283.257 296.512 286.332 296.512H324.624C327.699 296.512 330.192 299.005 330.192 302.08C330.192 305.155 327.699 307.648 324.624 307.648H286.332C283.257 307.648 280.764 305.155 280.764 302.08Z" fill="#EEEEEE"/>
<path fill-rule="evenodd" clip-rule="evenodd" d="M341.076 302.08C341.076 299.005 343.568 296.512 346.644 296.512H384.955C388.03 296.512 390.523 299.005 390.523 302.08C390.523 305.155 388.03 307.648 384.955 307.648H346.644C343.568 307.648 341.076 305.155 341.076 302.08Z" fill="#EEEEEE"/>
<path fill-rule="evenodd" clip-rule="evenodd" d="M401.387 302.08C401.387 299.005 403.88 296.512 406.955 296.512H445.266C448.341 296.512 450.834 299.005 450.834 302.08C450.834 305.155 448.341 307.648 445.266 307.648H406.955C403.88 307.648 401.387 305.155 401.387 302.08Z" fill="#EEEEEE"/>
<path d="M226.468 327.06H320.566" stroke="#EEEEEE" stroke-width="4.51" stroke-miterlimit="10" stroke-linecap="round"/>
<path fill-rule="evenodd" clip-rule="evenodd" d="M336.221 327.06C336.221 323.985 338.714 321.492 341.789 321.492H378.935C382.01 321.492 384.503 323.985 384.503 327.06C384.503 330.135 382.01 332.628 378.935 332.628H341.789C338.714 332.628 336.221 330.135 336.221 327.06Z" fill="#EEEEEE"/>
<path fill-rule="evenodd" clip-rule="evenodd" d="M418.241 327.06C418.241 323.985 420.734 321.492 423.809 321.492H445.052C448.127 321.492 450.62 323.985 450.62 327.06C450.62 330.135 448.127 332.628 445.052 332.628H423.809C420.734 332.628 418.241 330.135 418.241 327.06Z" fill="#EEEEEE"/>
<path d="M280.546 277.391H225.477C222.837 277.391 220.681 274.907 220.681 271.859V245.676C220.681 242.629 222.817 240.144 225.477 240.144H280.546C283.187 240.144 285.342 242.629 285.342 245.676V271.859C285.342 274.907 283.206 277.391 280.546 277.391Z" fill="#EEEEEE"/>
<path d="M447.511 228.072C452.493 219.262 449.387 208.084 440.575 203.104C431.762 198.124 420.579 201.229 415.597 210.038C410.615 218.847 413.72 230.025 422.533 235.005C431.346 239.985 442.529 236.881 447.511 228.072Z" fill="#EEEEEE"/>
<path d="M209.341 521.349C295.134 521.349 364.682 518.742 364.682 515.527C364.682 512.311 295.134 509.704 209.341 509.704C123.549 509.704 54 512.311 54 515.527C54 518.742 123.549 521.349 209.341 521.349Z" fill="#EEEEEE"/>
<g style="mix-blend-mode:multiply">
<path d="M131.282 516.128H113.069C92.117 516.128 75.1072 499.125 75.1072 478.183V84.9456C75.1072 63.9833 92.117 47 113.069 47H131.282C110.331 47 93.3209 63.9833 93.3209 84.9456V478.202C93.3209 499.145 110.331 516.148 131.282 516.148V516.128Z" fill="#EEEEEE"/>
</g>
<path d="M287.42 47H131.282C110.317 47 93.3208 63.9888 93.3208 84.9456V478.183C93.3208 499.139 110.317 516.128 131.282 516.128H287.42C308.385 516.128 325.381 499.139 325.381 478.183V84.9456C325.381 63.9888 308.385 47 287.42 47Z" fill="#EEEEEE"/>
<path d="M325.401 84.9456V478.202C325.401 499.145 308.41 516.148 287.439 516.148H269.225C290.196 516.148 307.187 499.145 307.187 478.202V84.9456C307.187 63.9833 290.196 47 269.225 47H287.439C308.41 47 325.401 63.9833 325.401 84.9456Z" fill="#EEEEEE"/>
<path d="M282.177 58.4326H136.564C120.038 58.4326 106.641 71.8237 106.641 88.3426V474.786C106.641 491.305 120.038 504.696 136.564 504.696H282.177C298.703 504.696 312.1 491.305 312.1 474.786V88.3426C312.1 71.8237 298.703 58.4326 282.177 58.4326Z" fill="#EEEEEE"/>
<path d="M240.526 483.772H170.817C170.163 483.772 169.632 484.303 169.632 484.956V485.403C169.632 486.057 170.163 486.587 170.817 486.587H240.526C241.18 486.587 241.711 486.057 241.711 485.403V484.956C241.711 484.303 241.18 483.772 240.526 483.772Z" fill="#EEEEEE"/>
<path d="M150.758 51.3087V57.7526C150.758 64.9536 156.584 70.7958 163.768 70.7958H254.953C262.138 70.7958 267.963 64.9536 267.963 57.7526V48.5137L150.758 51.2893V51.3087Z" fill="#EEEEEE"/>
<path d="M249.206 58.8785C249.206 59.946 248.332 60.8194 247.264 60.8194C246.196 60.8194 245.322 59.946 245.322 58.8785C245.322 57.811 246.196 56.9375 247.264 56.9375C248.332 56.9375 249.206 57.811 249.206 58.8785Z" fill="#EEEEEE"/>
<path d="M227.361 60.8194H191.05C189.982 60.8194 189.108 59.946 189.108 58.8785C189.108 57.811 189.982 56.9375 191.05 56.9375H227.361C228.429 56.9375 229.303 57.811 229.303 58.8785C229.303 59.946 228.429 60.8194 227.361 60.8194Z" fill="#EEEEEE"/>
<g style="mix-blend-mode:multiply">
<path d="M325.401 102.511V153.519H261.808C247.711 153.519 236.293 142.107 236.293 128.015C236.293 120.97 239.147 114.603 243.769 109.984C248.39 105.364 254.759 102.511 261.808 102.511H325.401Z" fill="#EEEEEE"/>
</g>
<path d="M411.324 134.945H274.002C259.905 134.945 248.487 123.532 248.487 109.44C248.487 95.3493 259.905 83.9365 274.002 83.9365H411.324C425.421 83.9365 436.838 95.3493 436.838 109.44C436.838 123.532 425.421 134.945 411.324 134.945Z" fill="#EEEEEE"/>
<path d="M273.866 109.945C273.866 104.472 278.293 100.046 283.769 100.046C289.245 100.046 293.672 104.472 293.672 109.945C293.672 115.419 289.245 119.844 283.769 119.844C278.293 119.844 273.866 115.419 273.866 109.945Z" fill="#EEEEEE"/>
<path d="M312.041 109.945C312.041 104.472 316.468 100.046 321.944 100.046C327.42 100.046 331.847 104.472 331.847 109.945C331.847 115.419 327.42 119.844 321.944 119.844C316.468 119.844 312.041 115.419 312.041 109.945Z" fill="#EEEEEE"/>
<path d="M350.216 109.945C350.216 104.472 354.644 100.046 360.119 100.046C365.595 100.046 370.022 104.472 370.022 109.945C370.022 115.419 365.595 119.844 360.119 119.844C354.644 119.844 350.216 115.419 350.216 109.945Z" fill="#EEEEEE"/>
<path d="M388.372 109.945C388.372 104.472 392.799 100.046 398.275 100.046C403.751 100.046 408.178 104.472 408.178 109.945C408.178 115.419 403.751 119.844 398.275 119.844C392.799 119.844 388.372 115.419 388.372 109.945Z" fill="#EEEEEE"/>
<path d="M272.623 171.201C267.089 175.006 256.798 179.392 240.876 175.879C224.429 172.269 216.506 162.836 212.934 156.547C212.351 155.519 211.303 154.995 210.273 155.014C209.264 155.014 208.273 155.538 207.71 156.547C207.05 157.731 206.215 159.012 205.225 160.352C203.885 162.137 202.234 164.02 200.196 165.844C199.167 166.757 198.06 167.669 196.836 168.542C192.565 171.59 186.992 174.288 179.807 175.879C176.817 176.539 174.04 176.908 171.438 177.083C170.564 177.141 169.729 177.16 168.914 177.16C167.322 177.16 165.826 177.102 164.409 176.947C162.875 176.791 161.419 176.559 160.059 176.267C158.739 175.976 157.516 175.646 156.351 175.258C154.622 174.695 153.069 174.016 151.69 173.317C151.224 173.084 150.797 172.851 150.37 172.618C149.535 172.133 148.758 171.648 148.059 171.182C147.535 170.813 146.952 170.639 146.37 170.619C145.807 170.6 145.244 170.736 144.739 171.007C144.253 171.279 143.807 171.667 143.516 172.153C143.205 172.638 143.03 173.22 143.03 173.861C143.03 175.472 143.069 177.335 143.127 179.392C143.166 180.77 143.205 182.226 143.263 183.759C143.341 186.069 143.457 188.554 143.613 191.193C144.176 200.84 145.263 212.369 147.302 223.976C147.496 225.024 147.69 226.092 147.885 227.14C149.904 237.699 152.778 248.16 156.797 257.186C157.593 258.991 158.448 260.738 159.36 262.407C162.953 269.084 166.467 274.848 170.079 279.895C171.885 282.418 173.71 284.747 175.593 286.94C179.36 291.308 183.302 295.034 187.632 298.334C189.788 299.984 192.06 301.517 194.429 302.992C196.798 304.448 199.302 305.826 201.943 307.146C204.584 308.466 207.361 309.708 210.293 310.931C210.312 310.931 210.332 310.931 210.351 310.95C222.138 306.078 231.283 300.624 239.283 293.054C247.283 285.485 254.138 275.799 261.342 262.407C275.769 235.583 277.536 191.077 277.672 173.841C277.672 171.26 274.779 169.707 272.643 171.182L272.623 171.201Z" fill="#EEEEEE"/>
<path d="M210.332 301.012C208.836 300.353 207.4 299.673 206.001 298.974C203.555 297.752 201.322 296.529 199.186 295.209C197.031 293.889 195.05 292.531 193.147 291.075C189.302 288.144 185.807 284.844 182.487 280.982C180.797 279.022 179.108 276.867 177.477 274.577C174.176 269.957 170.875 264.561 167.38 258.079C166.603 256.623 165.846 255.07 165.127 253.459C161.749 245.909 158.972 236.476 156.836 225.412C156.642 224.403 156.448 223.394 156.273 222.365C154.564 212.719 153.36 202.043 152.7 190.631C152.545 188.127 152.448 185.759 152.37 183.546C152.739 183.682 153.088 183.798 153.457 183.915C154.972 184.419 156.545 184.846 158.098 185.176C159.807 185.545 161.632 185.836 163.477 186.011C165.147 186.186 166.875 186.263 168.584 186.263H168.953C169.923 186.263 170.933 186.225 171.962 186.166C175.147 185.972 178.428 185.506 181.749 184.769C189.458 183.08 196.312 180.111 202.118 175.957C203.574 174.928 204.972 173.802 206.273 172.638C207.71 171.357 209.069 169.959 210.332 168.523C215.827 174.773 224.798 181.683 238.914 184.788C243.419 185.778 247.866 186.283 252.08 186.283C258.468 186.283 263.866 185.138 268.274 183.565C267.536 202.509 264.585 237.019 253.264 258.098C246.332 270.986 240.079 279.72 232.973 286.436C226.856 292.22 219.769 296.801 210.312 301.032L210.332 301.012Z" fill="#EEEEEE"/>
<path d="M222.176 221.822C222.176 214.757 216.448 209.031 209.38 209.031C202.312 209.031 196.584 214.757 196.584 221.822C196.584 227.315 200.04 231.973 204.914 233.797L200.526 251.246C200.332 252.023 200.914 252.76 201.71 252.76H217.07C217.866 252.76 218.448 252.023 218.254 251.246L213.866 233.797C218.72 231.973 222.196 227.315 222.196 221.822H222.176Z" fill="#EEEEEE"/>
<path d="M170.389 402.427C170.448 398.099 171.069 394.12 172.118 390.471C172.118 390.413 172.156 390.374 172.176 390.316C172.448 389.384 172.739 388.472 173.069 387.598" stroke="#EEEEEE" stroke-width="1.42" stroke-linecap="round" stroke-linejoin="round"/>
<path d="M247.614 402.699C247.614 400.389 247.419 398.157 247.089 396.041C245.381 384.609 239.536 376.011 231.924 370.421" stroke="#EEEEEE" stroke-width="1.42" stroke-linecap="round" stroke-linejoin="round"/>
<path d="M223.769 365.84C224.837 366.287 225.905 366.772 226.934 367.315" stroke="#EEEEEE" stroke-width="1.42" stroke-linecap="round" stroke-linejoin="round"/>
<path d="M176.448 380.747C183.749 369.023 196.584 362.871 208.934 362.871C211.652 362.871 214.39 363.162 217.07 363.744" stroke="#EEEEEE" stroke-width="1.42" stroke-linecap="round" stroke-linejoin="round"/>
<path d="M199.089 371.372C187.361 375.254 177.302 386.123 177.302 403.145C177.302 405.61 175.341 409.007 171.904 412.617" stroke="#EEEEEE" stroke-width="1.42" stroke-linecap="round" stroke-linejoin="round"/>
<path d="M236.215 385.405C239.011 390.238 240.701 396.158 240.701 403.126V403.262C240.701 412.986 238.778 421.759 235.672 429.581" stroke="#EEEEEE" stroke-width="1.42" stroke-linecap="round" stroke-linejoin="round"/>
<path d="M208.914 369.78C217.341 369.78 226.06 373.274 232.215 379.97" stroke="#EEEEEE" stroke-width="1.42" stroke-linecap="round" stroke-linejoin="round"/>
<path d="M184.351 400.137C184.254 401.127 184.215 402.117 184.215 403.165C184.215 409.259 179.263 415.315 174.7 419.605" stroke="#EEEEEE" stroke-width="1.42" stroke-linecap="round" stroke-linejoin="round"/>
<path d="M233.439 410.113C232.332 420.439 228.817 429.503 224.118 437.287" stroke="#EEEEEE" stroke-width="1.42" stroke-linecap="round" stroke-linejoin="round"/>
<path d="M186.623 391.247C190.875 381.717 200.099 376.69 208.934 376.69C220.856 376.69 232.914 385.133 233.769 401.282" stroke="#EEEEEE" stroke-width="1.42" stroke-linecap="round" stroke-linejoin="round"/>
<path d="M216.856 385.405C222.448 388.103 226.875 393.868 226.875 403.126V403.262C226.875 409.842 225.769 415.917 223.885 421.487" stroke="#EEEEEE" stroke-width="1.42" stroke-linecap="round" stroke-linejoin="round"/>
<path d="M208.914 383.6C200.079 383.6 191.128 390.316 191.128 403.165C191.128 411.918 184.856 419.779 178.487 425.505" stroke="#EEEEEE" stroke-width="1.42" stroke-linecap="round" stroke-linejoin="round"/>
<path d="M221.536 427.427C219.4 432.046 216.759 436.277 213.866 440.101" stroke="#EEEEEE" stroke-width="1.42" stroke-linecap="round" stroke-linejoin="round"/>
<path d="M191.147 421.895C188.759 425.136 186.001 428.028 183.205 430.552" stroke="#EEEEEE" stroke-width="1.42" stroke-linecap="round" stroke-linejoin="round"/>
<path d="M204.836 440.198C213.031 430.94 219.982 418.557 219.982 403.262V403.126C219.982 393.829 214.021 390.51 208.934 390.51C203.846 390.51 198.04 394.45 198.04 403.165C198.04 407.881 196.72 412.326 194.623 416.363" stroke="#EEEEEE" stroke-width="1.42" stroke-linecap="round" stroke-linejoin="round"/>
<path d="M196.953 438.509C213.264 422.011 213.05 406.95 213.05 403.106C213.05 398.798 211.264 397.4 208.895 397.4C206.526 397.4 204.914 399.302 204.914 403.106C204.914 406.581 204.992 419.624 188.797 434.744" stroke="#EEEEEE" stroke-width="1.42" stroke-linecap="round" stroke-linejoin="round"/>
</svg>
